<?xml version="1.0" standalone="no"?>
<!DOCTYPE svg PUBLIC "-//W3C//DTD SVG 20010904//EN"
 "http://www.w3.org/TR/2001/REC-SVG-20010904/DTD/svg10.dtd">
<svg version="1.0" xmlns="http://www.w3.org/2000/svg"
 width="260.000000pt" height="260.000000pt" viewBox="0 0 260.000000 260.000000"
 preserveAspectRatio="xMidYMid meet">
<metadata>
Created by potrace 1.11, written by Peter Selinger 2001-2013
</metadata>
<g transform="translate(0.000000,260.000000) scale(0.100000,-0.100000)"
fill="#000000" stroke="none">
<path d="M1220 2592 c-25 -1 -74 -7 -110 -13 -36 -6 -78 -13 -94 -16 -104 -17
-328 -113 -433 -184 -308 -209 -508 -523 -568 -889 -20 -121 -13 -349 13 -468
38 -169 104 -322 200 -464 58 -86 192 -233 202 -221 10 11 19 40 295 876 224
679 250 753 282 788 20 22 50 43 71 49 38 10 410 13 382 3 -32 -12 -104 -79
-132 -122 -31 -50 -140 -375 -174 -521 -1 -8 -86 -305 -188 -659 -102 -355
-183 -648 -180 -652 8 -13 219 -77 294 -89 77 -12 417 -9 474 4 318 74 540
208 757 456 35 40 124 180 156 245 54 109 96 236 118 355 15 77 14 364 -1 440
-8 41 -16 84 -18 95 -2 11 -15 54 -29 95 -106 315 -327 578 -620 738 -69 38
-237 106 -288 116 -110 22 -140 27 -179 32 -57 6 -172 10 -230 6z m976 -1171
c43 -19 82 -12 164 29 44 22 82 40 84 40 7 0 -16 -53 -93 -213 -34 -71 -61
-130 -61 -132 0 -3 -23 -53 -156 -332 -36 -76 -52 -88 -95 -67 -31 15 -49 50
-83 160 -44 142 -45 132 31 294 38 80 87 182 108 228 l39 84 18 -40 c11 -21
30 -44 44 -51z"/>
</g>
</svg>
